<svg xmlns="http://www.w3.org/2000/svg" viewBox="0 0 86.597 100"><linearGradient id="A" gradientUnits="userSpaceOnUse" x1=".612" y1="56.131" x2="21.227" y2="56.131"><stop offset="0" stop-color="#f7cc28"/><stop offset="1" stop-color="#f3b81c"/></linearGradient><path d="M21.227 86.881L.612 75.121v-49.74l20.615 12.204z" fill="url(#A)"/><linearGradient id="B" gradientUnits="userSpaceOnUse" x1=".612" y1="19.088" x2="64.208" y2="19.088"><stop offset="0" stop-color="#bcd151"/><stop offset="1" stop-color="#92c142"/></linearGradient><path d="M43.171.59L.612 25.381l20.615 12.204L64.208 12.72z" opacity=".7" fill="url(#B)"/><linearGradient id="C" gradientUnits="userSpaceOnUse" x1="43.215" y1="75.157" x2="86.171" y2="75.157"><stop offset="0" stop-color="#6fbfb3"/><stop offset="1" stop-color="#469585"/></linearGradient><path d="M86.132 50.724l.039 24.057L43.215 99.59l.135-24.311z" opacity=".7" fill="url(#C)"/><linearGradient id="D" gradientUnits="userSpaceOnUse" x1=".586" y1="75.458" x2="43.35" y2="75.458"><stop offset="0" stop-color="#f7cc28"/><stop offset="1" stop-color="#f3b81c"/></linearGradient><path d="M.586 75.092L43.215 99.59l.135-24.311L.637 51.326z" fill="url(#D)"/><linearGradient id="E" gradientUnits="userSpaceOnUse" x1="22.796" y1="19.006" x2="86.092" y2="19.006"><stop offset="0" stop-color="#bcd151"/><stop offset="1" stop-color="#92c142"/></linearGradient><path d="M22.796 12.641L43.242.59l42.85 24.791-20.215 12.041z" opacity=".7" fill="url(#E)"/><linearGradient id="F" gradientUnits="userSpaceOnUse" x1="65.877" y1="55.926" x2="86.171" y2="55.926"><stop offset="0" stop-color="#6fbfb3"/><stop offset="1" stop-color="#469585"/></linearGradient><path d="M86.171 74.781l-.08-49.4-20.215 12.041.012 49.049z" opacity=".7" fill="url(#F)"/><linearGradient id="G" gradientUnits="userSpaceOnUse" x1="28.443" y1="50.09" x2="58.449" y2="50.09"><stop offset="0" stop-color="#f3961e"/><stop offset="1" stop-color="#e67b10"/></linearGradient><path d="M58.449 58.752l-15.003 8.662-15.003-8.662V41.428l15.003-8.662 15.003 8.662z" opacity=".7" fill="url(#G)"/><g opacity=".75"><linearGradient id="H" gradientUnits="userSpaceOnUse" x1="28.443" y1="45.759" x2="58.449" y2="45.759"><stop offset="0" stop-color="#f3961e"/><stop offset="1" stop-color="#e67b10"/></linearGradient><path d="M28.443 58.752V41.428l15.003-8.662 15.003 8.662" opacity=".7" fill="url(#H)"/></g></svg>
